<?xml version="1.0" encoding="UTF-8" standalone="no"?><svg xmlns="http://www.w3.org/2000/svg" xmlns:xlink="http://www.w3.org/1999/xlink" contentStyleType="text/css" height="514px" preserveAspectRatio="none" style="width:802px;height:514px;background:#FFFFFF;" version="1.1" viewBox="0 0 802 514" width="802px" zoomAndPan="magnify"><defs/><g><!--MD5=[121a8bf1197281ab89ed693fab589f94]
cluster Domain--><g id="cluster_Domain"><path d="M423.5,6 L482.5,6 A3.75,3.75 0 0 1 485,8.5 L492,28.2969 L792.5,28.2969 A2.5,2.5 0 0 1 795,30.7969 L795,278.5 A2.5,2.5 0 0 1 792.5,281 L423.5,281 A2.5,2.5 0 0 1 421,278.5 L421,8.5 A2.5,2.5 0 0 1 423.5,6 " fill="none" style="stroke:#000000;stroke-width:1.5;"/><line style="stroke:#000000;stroke-width:1.5;" x1="421" x2="492" y1="28.2969" y2="28.2969"/><text fill="#000000" font-family="sans-serif" font-size="14" font-weight="bold" lengthAdjust="spacing" textLength="58" x="425" y="20.9951">Domain</text></g><!--MD5=[0635c7af7a8603fabff0f62e5375dcb1]
cluster Domain Object--><g id="cluster_Domain Object"><polygon fill="none" points="445,59,455,49,635,49,635,247,625,257,445,257,445,59" style="stroke:#181818;stroke-width:1.0;"/><line style="stroke:#181818;stroke-width:1.0;" x1="625" x2="635" y1="59" y2="49"/><line style="stroke:#181818;stroke-width:1.0;" x1="445" x2="625" y1="59" y2="59"/><line style="stroke:#181818;stroke-width:1.0;" x1="625" x2="625" y1="59" y2="257"/><text fill="#000000" font-family="sans-serif" font-size="14" font-weight="bold" lengthAdjust="spacing" textLength="114" x="479" y="74.9951">Domain Object</text></g><!--MD5=[d64883541e3d62e3241c4d12decf100d]
cluster Application--><g id="cluster_Application"><path d="M8.5,54 L96.5,54 A3.75,3.75 0 0 1 99,56.5 L106,76.2969 L346.5,76.2969 A2.5,2.5 0 0 1 349,78.7969 L349,254.5 A2.5,2.5 0 0 1 346.5,257 L8.5,257 A2.5,2.5 0 0 1 6,254.5 L6,56.5 A2.5,2.5 0 0 1 8.5,54 " fill="none" style="stroke:#000000;stroke-width:1.5;"/><line style="stroke:#000000;stroke-width:1.5;" x1="6" x2="106" y1="76.2969" y2="76.2969"/><text fill="#000000" font-family="sans-serif" font-size="14" font-weight="bold" lengthAdjust="spacing" textLength="87" x="10" y="68.9951">Application</text></g><!--MD5=[9ddaf8ee8bcae11a9a9232f969198262]
cluster Infrastructure--><g id="cluster_Infrastructure"><path d="M185.5,305 L296.5,305 A3.75,3.75 0 0 1 299,307.5 L306,327.2969 L456.5,327.2969 A2.5,2.5 0 0 1 459,329.7969 L459,504.5 A2.5,2.5 0 0 1 456.5,507 L185.5,507 A2.5,2.5 0 0 1 183,504.5 L183,307.5 A2.5,2.5 0 0 1 185.5,305 " fill="none" style="stroke:#000000;stroke-width:1.5;"/><line style="stroke:#000000;stroke-width:1.5;" x1="183" x2="306" y1="327.2969" y2="327.2969"/><text fill="#000000" font-family="sans-serif" font-size="14" font-weight="bold" lengthAdjust="spacing" textLength="110" x="187" y="319.9951">Infrastructure</text></g><!--MD5=[ca90e29f08732e1f8975e741fe954bc8]
entity Repositories--><g id="elem_Repositories"><rect fill="#F1F1F1" height="46.2969" rx="2.5" ry="2.5" style="stroke:#181818;stroke-width:0.5;" width="127" x="651.5" y="195"/><rect fill="#F1F1F1" height="10" style="stroke:#181818;stroke-width:0.5;" width="15" x="758.5" y="200"/><rect fill="#F1F1F1" height="2" style="stroke:#181818;stroke-width:0.5;" width="4" x="756.5" y="202"/><rect fill="#F1F1F1" height="2" style="stroke:#181818;stroke-width:0.5;" width="4" x="756.5" y="206"/><text fill="#000000" font-family="sans-serif" font-size="14" lengthAdjust="spacing" textLength="87" x="666.5" y="227.9951">Repositories</text></g><!--MD5=[55b2553e315335e8489a9e4849955fcc]
entity DomainService--><g id="elem_DomainService"><rect fill="#F1F1F1" height="46.2969" rx="2.5" ry="2.5" style="stroke:#181818;stroke-width:0.5;" width="143" x="468.5" y="89"/><rect fill="#F1F1F1" height="10" style="stroke:#181818;stroke-width:0.5;" width="15" x="591.5" y="94"/><rect fill="#F1F1F1" height="2" style="stroke:#181818;stroke-width:0.5;" width="4" x="589.5" y="96"/><rect fill="#F1F1F1" height="2" style="stroke:#181818;stroke-width:0.5;" width="4" x="589.5" y="100"/><text fill="#000000" font-family="sans-serif" font-size="14" lengthAdjust="spacing" textLength="103" x="483.5" y="121.9951">DomainService</text></g><!--MD5=[d4431bf3c75bf55908c281f839c556ae]
entity ValueObjects--><g id="elem_ValueObjects"><rect fill="#F1F1F1" height="46.2969" rx="2.5" ry="2.5" style="stroke:#181818;stroke-width:0.5;" width="131" x="474.5" y="195"/><rect fill="#F1F1F1" height="10" style="stroke:#181818;stroke-width:0.5;" width="15" x="585.5" y="200"/><rect fill="#F1F1F1" height="2" style="stroke:#181818;stroke-width:0.5;" width="4" x="583.5" y="202"/><rect fill="#F1F1F1" height="2" style="stroke:#181818;stroke-width:0.5;" width="4" x="583.5" y="206"/><text fill="#000000" font-family="sans-serif" font-size="14" lengthAdjust="spacing" textLength="91" x="489.5" y="227.9951">ValueObjects</text></g><!--MD5=[ef6f779240a1105463881383c2a2efd5]
entity UseCases--><g id="elem_UseCases"><rect fill="#F1F1F1" height="46.2969" rx="2.5" ry="2.5" style="stroke:#181818;stroke-width:0.5;" width="110" x="223" y="89"/><rect fill="#F1F1F1" height="10" style="stroke:#181818;stroke-width:0.5;" width="15" x="313" y="94"/><rect fill="#F1F1F1" height="2" style="stroke:#181818;stroke-width:0.5;" width="4" x="311" y="96"/><rect fill="#F1F1F1" height="2" style="stroke:#181818;stroke-width:0.5;" width="4" x="311" y="100"/><text fill="#000000" font-family="sans-serif" font-size="14" lengthAdjust="spacing" textLength="70" x="238" y="121.9951">UseCases</text></g><!--MD5=[896c83da96d0979eef4e5c0f78488a5f]
entity UnitOfWork--><g id="elem_UnitOfWork"><rect fill="#F1F1F1" height="46.2969" rx="2.5" ry="2.5" style="stroke:#181818;stroke-width:0.5;" width="117" x="22.5" y="195"/><rect fill="#F1F1F1" height="10" style="stroke:#181818;stroke-width:0.5;" width="15" x="119.5" y="200"/><rect fill="#F1F1F1" height="2" style="stroke:#181818;stroke-width:0.5;" width="4" x="117.5" y="202"/><rect fill="#F1F1F1" height="2" style="stroke:#181818;stroke-width:0.5;" width="4" x="117.5" y="206"/><text fill="#000000" font-family="sans-serif" font-size="14" lengthAdjust="spacing" textLength="77" x="37.5" y="227.9951">UnitOfWork</text></g><!--MD5=[b48312a5c15416c7ebcfae6da7251452]
entity ExternalProviders--><g id="elem_ExternalProviders"><rect fill="#F1F1F1" height="46.2969" rx="2.5" ry="2.5" style="stroke:#181818;stroke-width:0.5;" width="159" x="174.5" y="195"/><rect fill="#F1F1F1" height="10" style="stroke:#181818;stroke-width:0.5;" width="15" x="313.5" y="200"/><rect fill="#F1F1F1" height="2" style="stroke:#181818;stroke-width:0.5;" width="4" x="311.5" y="202"/><rect fill="#F1F1F1" height="2" style="stroke:#181818;stroke-width:0.5;" width="4" x="311.5" y="206"/><text fill="#000000" font-family="sans-serif" font-size="14" lengthAdjust="spacing" textLength="119" x="189.5" y="227.9951">ExternalProviders</text></g><!--MD5=[c0b8fd0739927fe5d3134992df684e10]
entity Adapters--><g id="elem_Adapters"><rect fill="#F1F1F1" height="46.2969" rx="2.5" ry="2.5" style="stroke:#181818;stroke-width:0.5;" width="102" x="199" y="340"/><rect fill="#F1F1F1" height="10" style="stroke:#181818;stroke-width:0.5;" width="15" x="281" y="345"/><rect fill="#F1F1F1" height="2" style="stroke:#181818;stroke-width:0.5;" width="4" x="279" y="347"/><rect fill="#F1F1F1" height="2" style="stroke:#181818;stroke-width:0.5;" width="4" x="279" y="351"/><text fill="#000000" font-family="sans-serif" font-size="14" lengthAdjust="spacing" textLength="62" x="214" y="372.9951">Adapters</text></g><!--MD5=[f855680bc6c989572ebb25245d27968d]
entity Controller--><g id="elem_Controller"><rect fill="#F1F1F1" height="46.2969" rx="2.5" ry="2.5" style="stroke:#181818;stroke-width:0.5;" width="107" x="336.5" y="340"/><rect fill="#F1F1F1" height="10" style="stroke:#181818;stroke-width:0.5;" width="15" x="423.5" y="345"/><rect fill="#F1F1F1" height="2" style="stroke:#181818;stroke-width:0.5;" width="4" x="421.5" y="347"/><rect fill="#F1F1F1" height="2" style="stroke:#181818;stroke-width:0.5;" width="4" x="421.5" y="351"/><text fill="#000000" font-family="sans-serif" font-size="14" lengthAdjust="spacing" textLength="67" x="351.5" y="372.9951">Controller</text></g><!--MD5=[293719a36374a47656a48fbb602f2cf6]
entity DatabaseConnector--><g id="elem_DatabaseConnector"><path d="M198.5,456 C198.5,446 278,446 278,446 C278,446 357.5,446 357.5,456 L357.5,481.2969 C357.5,491.2969 278,491.2969 278,491.2969 C278,491.2969 198.5,491.2969 198.5,481.2969 L198.5,456 " fill="#F1F1F1" style="stroke:#181818;stroke-width:0.5;"/><path d="M198.5,456 C198.5,466 278,466 278,466 C278,466 357.5,466 357.5,456 " fill="none" style="stroke:#181818;stroke-width:0.5;"/><text fill="#000000" font-family="sans-serif" font-size="14" lengthAdjust="spacing" textLength="139" x="208.5" y="482.9951">DatabaseConnector</text></g><!--MD5=[be9b696cc9ec8eaeb1220aa2ab3ec9a4]
link DomainService to ValueObjects--><g id="link_DomainService_ValueObjects"><path d="M540,135.06 C540,151.05 540,172.78 540,189.84 " fill="none" id="DomainService-to-ValueObjects" style="stroke:#181818;stroke-width:1.0;"/><polygon fill="#181818" points="540,194.98,544,185.98,540,189.98,536,185.98,540,194.98" style="stroke:#181818;stroke-width:1.0;"/></g><!--MD5=[5e362256a101bc5806f7f5daa04b19c9]
link DomainService to Repositories--><g id="link_DomainService_Repositories"><path d="M577.11,135.06 C605.3,151.81 644.08,174.85 673.33,192.24 " fill="none" id="DomainService-to-Repositories" style="stroke:#181818;stroke-width:1.0;"/><polygon fill="#181818" points="677.94,194.98,672.249,186.9418,673.6425,192.4243,668.16,193.8178,677.94,194.98" style="stroke:#181818;stroke-width:1.0;"/></g><!--MD5=[ab2549761883009cac4ae959e3b23166]
link Repositories to ValueObjects--><g id="link_Repositories_ValueObjects"><path d="M651.34,218 C637.77,218 624.2,218 610.63,218 " fill="none" id="Repositories-to-ValueObjects" style="stroke:#181818;stroke-width:1.0;"/><polygon fill="#181818" points="605.62,218,614.6314,221.9743,610.62,217.9857,614.6085,213.9743,605.62,218" style="stroke:#181818;stroke-width:1.0;"/></g><!--MD5=[919481fc8a391c4136e2e2b1378d2923]
link UseCases to UnitOfWork--><g id="link_UseCases_UnitOfWork"><path d="M236.22,135.06 C204.36,151.88 160.48,175.04 127.5,192.45 " fill="none" id="UseCases-to-UnitOfWork" style="stroke:#181818;stroke-width:1.0;"/><polygon fill="#181818" points="122.72,194.98,132.5458,194.3071,127.1396,192.6419,128.8048,187.2357,122.72,194.98" style="stroke:#181818;stroke-width:1.0;"/></g><!--MD5=[4cc2f31c940565287ba9ec8f3e2952f4]
link UseCases to ExternalProviders--><g id="link_UseCases_ExternalProviders"><path d="M272.91,135.06 C269.22,151.05 264.2,172.78 260.27,189.84 " fill="none" id="UseCases-to-ExternalProviders" style="stroke:#181818;stroke-width:1.0;"/><polygon fill="#181818" points="259.08,194.98,265.008,187.115,260.2085,190.109,257.2145,185.3094,259.08,194.98" style="stroke:#181818;stroke-width:1.0;"/></g><!--MD5=[0057188e272ce93b240adc5ca86b3505]
link UseCases to ValueObjects--><g id="link_UseCases_ValueObjects"><path d="M333.24,134.93 C376.12,151.95 435.49,175.52 479.62,193.03 " fill="none" id="UseCases-to-ValueObjects" style="stroke:#181818;stroke-width:1.0;"/><polygon fill="#181818" points="484.38,194.92,477.4906,187.8818,479.7327,193.0754,474.5392,195.3175,484.38,194.92" style="stroke:#181818;stroke-width:1.0;"/></g><!--MD5=[f80c2d45733e532c6bbfa8ffe2a81e1f]
link UseCases to DomainService--><g id="link_UseCases_DomainService"><path d="M333.01,112 C376.48,112 419.95,112 463.42,112 " fill="none" id="UseCases-to-DomainService" style="stroke:#181818;stroke-width:1.0;"/><polygon fill="#181818" points="468.44,112,459.44,108,463.44,112,459.44,116,468.44,112" style="stroke:#181818;stroke-width:1.0;"/></g><!--MD5=[1419766e93bad29f7492b249a1b234a5]
reverse link Repositories to Adapters--><g id="link_Repositories_Adapters"><path d="M691.79,244.83 C675.67,260.8 652.7,279.93 628,289 C595.76,300.83 350.76,283.92 319,297 C297.54,305.84 278.79,324.66 266.27,339.78 " fill="none" id="Repositories-backto-Adapters" style="stroke:#181818;stroke-width:1.0;"/><polygon fill="#181818" points="695.33,241.26,686.1448,244.8141,691.8016,244.8027,691.813,250.4595,695.33,241.26" style="stroke:#181818;stroke-width:1.0;"/></g><!--MD5=[07f5254567adcd61203c8872f4a1fdf4]
reverse link UnitOfWork to Adapters--><g id="link_UnitOfWork_Adapters"><path d="M108.12,244.95 C122.42,258.37 140.39,274.87 157,289 C177.79,306.69 202.08,325.7 220.62,339.89 " fill="none" id="UnitOfWork-backto-Adapters" style="stroke:#181818;stroke-width:1.0;"/><polygon fill="#181818" points="104.19,241.24,108.0023,250.3211,107.831,244.6668,113.4853,244.4955,104.19,241.24" style="stroke:#181818;stroke-width:1.0;"/></g><!--MD5=[c75b5d94e209bc354667ea9236a43bbc]
reverse link ExternalProviders to Adapters--><g id="link_ExternalProviders_Adapters"><path d="M253.24,246.26 C252.48,273.38 251.33,314.48 250.62,339.71 " fill="none" id="ExternalProviders-backto-Adapters" style="stroke:#181818;stroke-width:1.0;"/><polygon fill="#181818" points="253.38,241.03,249.1246,249.9121,253.2372,246.028,257.1213,250.1406,253.38,241.03" style="stroke:#181818;stroke-width:1.0;"/></g><!--MD5=[aaabfe4061602b66fe54ec45e24e271b]
link Adapters to DatabaseConnector--><g id="link_Adapters_DatabaseConnector"><path d="M256.01,386.2 C260.32,402.14 266.15,423.69 270.72,440.6 " fill="none" id="Adapters-to-DatabaseConnector" style="stroke:#181818;stroke-width:1.0;"/><polygon fill="#181818" points="272.1,445.69,273.6227,435.9596,270.8001,440.8619,265.8978,438.0394,272.1,445.69" style="stroke:#181818;stroke-width:1.0;"/></g><!--MD5=[e0e06fcbefe72dfc59e758a7f84ee49c]
link Controller to UseCases--><g id="link_Controller_UseCases"><path d="M388.33,339.99 C385.08,306.86 375.88,242.97 351,195 C340.08,173.94 322.52,153.98 307.37,139.02 " fill="none" id="Controller-to-UseCases" style="stroke:#181818;stroke-width:1.0;"/><polygon fill="#181818" points="303.57,135.33,307.2352,144.4715,307.1552,138.8152,312.8115,138.7352,303.57,135.33" style="stroke:#181818;stroke-width:1.0;"/></g><!--MD5=[1930787271f94ef846f083c899d399b9]
@startuml
package "Domain" {
  node "Domain Object" {
      component DomainService 
      component ValueObjects
  }
  component Repositories
}

package "Application" {
  component UseCases
  component UnitOfWork
  component ExternalProviders
}

package "Infrastructure" {
  component Adapters
  component Controller
  database DatabaseConnector
}

DomainService - -> ValueObjects
DomainService - -> Repositories
Repositories - -> ValueObjects

UseCases - -> UnitOfWork
UseCases - -> ExternalProviders
UseCases - -> ValueObjects
UseCases - -> DomainService

Repositories <- - Adapters
UnitOfWork <- - Adapters
ExternalProviders <- - Adapters

Adapters - -> DatabaseConnector
Controller - -> UseCases
@enduml

PlantUML version 1.2022.7(Mon Aug 22 17:01:30 UTC 2022)
(GPL source distribution)
Java Runtime: OpenJDK Runtime Environment
JVM: OpenJDK 64-Bit Server VM
Default Encoding: UTF-8
Language: en
Country: null
--></g></svg>